<?xml version="1.0" encoding="UTF-8" standalone="no"?>
<!DOCTYPE svg PUBLIC "-//W3C//DTD SVG 1.1//EN"
 "http://www.w3.org/Graphics/SVG/1.1/DTD/svg11.dtd">
<!-- Generated by graphviz version 2.38.0 (20140413.2041)
 -->
<!-- Title: models_diagram Pages: 1 -->
<svg width="726pt" height="626pt"
 viewBox="0.00 0.00 726.34 626.00" xmlns="http://www.w3.org/2000/svg" xmlns:xlink="http://www.w3.org/1999/xlink">
<g id="graph0" class="graph" transform="scale(1 1) rotate(0) translate(4 622)">
<title>models_diagram</title>
<polygon fill="none" stroke="none" points="-4,4 -4,-622 722.343,-622 722.343,4 -4,4"/>
<!-- _diagram_info -->
<g id="node1" class="node"><title>_diagram_info</title>
<text text-anchor="start" x="8" y="-521.6" font-family="Times,serif" font-size="13.00">Models diagram</text>
<text text-anchor="start" x="8" y="-507.6" font-family="Times,serif" font-size="13.00">Date: Mar 06 2018 &#45; 12:24</text>
<text text-anchor="start" x="8" y="-493.6" font-family="Times,serif" font-size="13.00">Migration version: 20180306151036</text>
<text text-anchor="start" x="8" y="-479.6" font-family="Times,serif" font-size="13.00">Generated by RailRoady 1.5.3</text>
<text text-anchor="start" x="8" y="-465.6" font-family="Times,serif" font-size="13.00">http://railroady.prestonlee.com</text>
</g>
<!-- Billing -->
<g id="node2" class="node"><title>Billing</title>
<path fill="none" stroke="black" d="M129,-188.5C129,-188.5 349,-188.5 349,-188.5 355,-188.5 361,-194.5 361,-200.5 361,-200.5 361,-327.5 361,-327.5 361,-333.5 355,-339.5 349,-339.5 349,-339.5 129,-339.5 129,-339.5 123,-339.5 117,-333.5 117,-327.5 117,-327.5 117,-200.5 117,-200.5 117,-194.5 123,-188.5 129,-188.5"/>
<text text-anchor="middle" x="239" y="-324.3" font-family="Times,serif" font-size="14.00">Billing</text>
<polyline fill="none" stroke="black" points="117,-316.5 361,-316.5 "/>
<text text-anchor="start" x="125" y="-301.3" font-family="Times,serif" font-size="14.00">id :bigint</text>
<text text-anchor="start" x="125" y="-286.3" font-family="Times,serif" font-size="14.00">code :character varying</text>
<text text-anchor="start" x="125" y="-271.3" font-family="Times,serif" font-size="14.00">payment_method :character varying</text>
<text text-anchor="start" x="125" y="-256.3" font-family="Times,serif" font-size="14.00">amount :numeric(5,2)</text>
<text text-anchor="start" x="125" y="-241.3" font-family="Times,serif" font-size="14.00">currency :character varying</text>
<text text-anchor="start" x="125" y="-226.3" font-family="Times,serif" font-size="14.00">user_id :bigint</text>
<text text-anchor="start" x="125" y="-211.3" font-family="Times,serif" font-size="14.00">created_at :timestamp without time zone</text>
<text text-anchor="start" x="125" y="-196.3" font-family="Times,serif" font-size="14.00">updated_at :timestamp without time zone</text>
</g>
<!-- Order -->
<g id="node5" class="node"><title>Order</title>
<path fill="none" stroke="black" d="M279,-0.5C279,-0.5 499,-0.5 499,-0.5 505,-0.5 511,-6.5 511,-12.5 511,-12.5 511,-139.5 511,-139.5 511,-145.5 505,-151.5 499,-151.5 499,-151.5 279,-151.5 279,-151.5 273,-151.5 267,-145.5 267,-139.5 267,-139.5 267,-12.5 267,-12.5 267,-6.5 273,-0.5 279,-0.5"/>
<text text-anchor="middle" x="389" y="-136.3" font-family="Times,serif" font-size="14.00">Order</text>
<polyline fill="none" stroke="black" points="267,-128.5 511,-128.5 "/>
<text text-anchor="start" x="275" y="-113.3" font-family="Times,serif" font-size="14.00">id :bigint</text>
<text text-anchor="start" x="275" y="-98.3" font-family="Times,serif" font-size="14.00">payed :boolean</text>
<text text-anchor="start" x="275" y="-83.3" font-family="Times,serif" font-size="14.00">user_id :bigint</text>
<text text-anchor="start" x="275" y="-68.3" font-family="Times,serif" font-size="14.00">product_id :bigint</text>
<text text-anchor="start" x="275" y="-53.3" font-family="Times,serif" font-size="14.00">created_at :timestamp without time zone</text>
<text text-anchor="start" x="275" y="-38.3" font-family="Times,serif" font-size="14.00">updated_at :timestamp without time zone</text>
<text text-anchor="start" x="275" y="-23.3" font-family="Times,serif" font-size="14.00">quantity :integer</text>
<text text-anchor="start" x="275" y="-8.3" font-family="Times,serif" font-size="14.00">billing_id :bigint</text>
</g>
<!-- Billing&#45;&gt;Order -->
<g id="edge1" class="edge"><title>Billing&#45;&gt;Order</title>
<path fill="none" stroke="#6f7927" d="M304.217,-182.131C310.226,-174.68 316.32,-167.123 322.342,-159.656"/>
<ellipse fill="none" stroke="#6f7927" cx="301.657" cy="-185.305" rx="4.00002" ry="4.00002"/>
<polygon fill="#6f7927" stroke="#6f7927" points="322.563,-159.382 332.343,-154.423 325.701,-155.49 328.84,-151.598 328.84,-151.598 328.84,-151.598 325.701,-155.49 325.337,-148.773 322.563,-159.382 322.563,-159.382"/>
</g>
<!-- ApplicationRecord -->
<g id="node3" class="node"><title>ApplicationRecord</title>
<ellipse fill="none" stroke="black" cx="641" cy="-497" rx="77.1866" ry="18"/>
<text text-anchor="middle" x="641" y="-493.3" font-family="Times,serif" font-size="14.00">ApplicationRecord</text>
</g>
<!-- User -->
<g id="node4" class="node"><title>User</title>
<path fill="none" stroke="black" d="M244.5,-376.5C244.5,-376.5 533.5,-376.5 533.5,-376.5 539.5,-376.5 545.5,-382.5 545.5,-388.5 545.5,-388.5 545.5,-605.5 545.5,-605.5 545.5,-611.5 539.5,-617.5 533.5,-617.5 533.5,-617.5 244.5,-617.5 244.5,-617.5 238.5,-617.5 232.5,-611.5 232.5,-605.5 232.5,-605.5 232.5,-388.5 232.5,-388.5 232.5,-382.5 238.5,-376.5 244.5,-376.5"/>
<text text-anchor="middle" x="389" y="-602.3" font-family="Times,serif" font-size="14.00">User</text>
<polyline fill="none" stroke="black" points="232.5,-594.5 545.5,-594.5 "/>
<text text-anchor="start" x="240.5" y="-579.3" font-family="Times,serif" font-size="14.00">id :bigint</text>
<text text-anchor="start" x="240.5" y="-564.3" font-family="Times,serif" font-size="14.00">email :character varying</text>
<text text-anchor="start" x="240.5" y="-549.3" font-family="Times,serif" font-size="14.00">encrypted_password :character varying</text>
<text text-anchor="start" x="240.5" y="-534.3" font-family="Times,serif" font-size="14.00">reset_password_token :character varying</text>
<text text-anchor="start" x="240.5" y="-519.3" font-family="Times,serif" font-size="14.00">reset_password_sent_at :timestamp without time zone</text>
<text text-anchor="start" x="240.5" y="-504.3" font-family="Times,serif" font-size="14.00">remember_created_at :timestamp without time zone</text>
<text text-anchor="start" x="240.5" y="-489.3" font-family="Times,serif" font-size="14.00">sign_in_count :integer</text>
<text text-anchor="start" x="240.5" y="-474.3" font-family="Times,serif" font-size="14.00">current_sign_in_at :timestamp without time zone</text>
<text text-anchor="start" x="240.5" y="-459.3" font-family="Times,serif" font-size="14.00">last_sign_in_at :timestamp without time zone</text>
<text text-anchor="start" x="240.5" y="-444.3" font-family="Times,serif" font-size="14.00">current_sign_in_ip :inet</text>
<text text-anchor="start" x="240.5" y="-429.3" font-family="Times,serif" font-size="14.00">last_sign_in_ip :inet</text>
<text text-anchor="start" x="240.5" y="-414.3" font-family="Times,serif" font-size="14.00">name :character varying</text>
<text text-anchor="start" x="240.5" y="-399.3" font-family="Times,serif" font-size="14.00">created_at :timestamp without time zone</text>
<text text-anchor="start" x="240.5" y="-384.3" font-family="Times,serif" font-size="14.00">updated_at :timestamp without time zone</text>
</g>
<!-- User&#45;&gt;Billing -->
<g id="edge4" class="edge"><title>User&#45;&gt;Billing</title>
<path fill="none" stroke="#197a6d" d="M306.977,-369.685C302.292,-362.47 297.645,-355.313 293.108,-348.326"/>
<ellipse fill="none" stroke="#197a6d" cx="309.185" cy="-373.085" rx="4.00002" ry="4.00002"/>
<polygon fill="#197a6d" stroke="#197a6d" points="292.872,-347.962 291.2,-337.125 290.149,-343.769 287.426,-339.575 287.426,-339.575 287.426,-339.575 290.149,-343.769 283.652,-342.026 292.872,-347.962 292.872,-347.962"/>
</g>
<!-- User&#45;&gt;Order -->
<g id="edge2" class="edge"><title>User&#45;&gt;Order</title>
<path fill="none" stroke="#be029f" d="M389,-368.356C389,-301.274 389,-220.906 389,-161.586"/>
<ellipse fill="none" stroke="#be029f" cx="389" cy="-372.492" rx="4" ry="4"/>
<polygon fill="#be029f" stroke="#be029f" points="389,-161.508 393.5,-151.508 389,-156.508 389,-151.508 389,-151.508 389,-151.508 389,-156.508 384.5,-151.508 389,-161.508 389,-161.508"/>
</g>
<!-- Product -->
<g id="node6" class="node"><title>Product</title>
<path fill="none" stroke="black" d="M429,-203.5C429,-203.5 649,-203.5 649,-203.5 655,-203.5 661,-209.5 661,-215.5 661,-215.5 661,-312.5 661,-312.5 661,-318.5 655,-324.5 649,-324.5 649,-324.5 429,-324.5 429,-324.5 423,-324.5 417,-318.5 417,-312.5 417,-312.5 417,-215.5 417,-215.5 417,-209.5 423,-203.5 429,-203.5"/>
<text text-anchor="middle" x="539" y="-309.3" font-family="Times,serif" font-size="14.00">Product</text>
<polyline fill="none" stroke="black" points="417,-301.5 661,-301.5 "/>
<text text-anchor="start" x="425" y="-286.3" font-family="Times,serif" font-size="14.00">id :bigint</text>
<text text-anchor="start" x="425" y="-271.3" font-family="Times,serif" font-size="14.00">name :character varying</text>
<text text-anchor="start" x="425" y="-256.3" font-family="Times,serif" font-size="14.00">photo :character varying</text>
<text text-anchor="start" x="425" y="-241.3" font-family="Times,serif" font-size="14.00">price :integer</text>
<text text-anchor="start" x="425" y="-226.3" font-family="Times,serif" font-size="14.00">created_at :timestamp without time zone</text>
<text text-anchor="start" x="425" y="-211.3" font-family="Times,serif" font-size="14.00">updated_at :timestamp without time zone</text>
</g>
<!-- User&#45;&gt;Product -->
<g id="edge3" class="edge"><title>User&#45;&gt;Product</title>
<path fill="none" stroke="#c7e6c3" d="M472.088,-368.045C479.809,-356.153 487.416,-344.44 494.573,-333.417"/>
<polygon fill="#c7e6c3" stroke="#c7e6c3" points="472.082,-368.053 462.862,-373.989 469.359,-372.247 466.636,-376.44 466.636,-376.44 466.636,-376.44 469.359,-372.247 470.41,-378.891 472.082,-368.053 472.082,-368.053"/>
<polygon fill="#c7e6c3" stroke="#c7e6c3" points="494.765,-333.122 503.985,-327.185 497.488,-328.928 500.211,-324.735 500.211,-324.735 500.211,-324.735 497.488,-328.928 496.437,-322.284 494.765,-333.122 494.765,-333.122"/>
</g>
<!-- Product&#45;&gt;Order -->
<g id="edge5" class="edge"><title>Product&#45;&gt;Order</title>
<path fill="none" stroke="#2315a5" d="M485.882,-197.134C476.045,-184.936 465.658,-172.056 455.482,-159.438"/>
<ellipse fill="none" stroke="#2315a5" cx="488.409" cy="-200.267" rx="4.00002" ry="4.00002"/>
<polygon fill="#2315a5" stroke="#2315a5" points="455.458,-159.408 452.683,-148.799 452.319,-155.516 449.181,-151.624 449.181,-151.624 449.181,-151.624 452.319,-155.516 445.678,-154.449 455.458,-159.408 455.458,-159.408"/>
</g>
</g>
</svg>
