<?xml version="1.0" encoding="UTF-8" standalone="no"?>
<!DOCTYPE svg PUBLIC "-//W3C//DTD SVG 1.1//EN"
 "http://www.w3.org/Graphics/SVG/1.1/DTD/svg11.dtd">
<!-- Generated by graphviz version 2.38.0 (20140413.2041)
 -->
<!-- Title: models_diagram Pages: 1 -->
<svg width="467pt" height="230pt"
 viewBox="0.00 0.00 467.34 230.00" xmlns="http://www.w3.org/2000/svg" xmlns:xlink="http://www.w3.org/1999/xlink">
<g id="graph0" class="graph" transform="scale(1 1) rotate(0) translate(4 226)">
<title>models_diagram</title>
<polygon fill="none" stroke="none" points="-4,4 -4,-226 463.343,-226 463.343,4 -4,4"/>
<!-- _diagram_info -->
<g id="node1" class="node"><title>_diagram_info</title>
<text text-anchor="start" x="8" y="-207.6" font-family="Times,serif" font-size="13.00">Models diagram</text>
<text text-anchor="start" x="8" y="-193.6" font-family="Times,serif" font-size="13.00">Date: Mar 06 2018 &#45; 12:24</text>
<text text-anchor="start" x="8" y="-179.6" font-family="Times,serif" font-size="13.00">Migration version: 20180306151036</text>
<text text-anchor="start" x="8" y="-165.6" font-family="Times,serif" font-size="13.00">Generated by RailRoady 1.5.3</text>
<text text-anchor="start" x="8" y="-151.6" font-family="Times,serif" font-size="13.00">http://railroady.prestonlee.com</text>
</g>
<!-- Billing -->
<g id="node2" class="node"><title>Billing</title>
<ellipse fill="none" stroke="black" cx="196" cy="-90" rx="35.194" ry="18"/>
<text text-anchor="middle" x="196" y="-86.3" font-family="Times,serif" font-size="14.00">Billing</text>
</g>
<!-- Order -->
<g id="node5" class="node"><title>Order</title>
<ellipse fill="none" stroke="black" cx="259" cy="-18" rx="31.3957" ry="18"/>
<text text-anchor="middle" x="259" y="-14.3" font-family="Times,serif" font-size="14.00">Order</text>
</g>
<!-- Billing&#45;&gt;Order -->
<g id="edge1" class="edge"><title>Billing&#45;&gt;Order</title>
<path fill="none" stroke="#4ab741" d="M215.391,-67.4545C222.659,-59.3793 230.941,-50.1771 238.321,-41.9771"/>
<ellipse fill="none" stroke="#4ab741" cx="212.658" cy="-70.4915" rx="4.00002" ry="4.00002"/>
<polygon fill="#4ab741" stroke="#4ab741" points="238.368,-41.9248 248.402,-37.5022 241.713,-38.2083 245.057,-34.4918 245.057,-34.4918 245.057,-34.4918 241.713,-38.2083 241.713,-31.4815 238.368,-41.9248 238.368,-41.9248"/>
</g>
<!-- ApplicationRecord -->
<g id="node3" class="node"><title>ApplicationRecord</title>
<ellipse fill="none" stroke="black" cx="382" cy="-183" rx="77.1866" ry="18"/>
<text text-anchor="middle" x="382" y="-179.3" font-family="Times,serif" font-size="14.00">ApplicationRecord</text>
</g>
<!-- User -->
<g id="node4" class="node"><title>User</title>
<ellipse fill="none" stroke="black" cx="259" cy="-183" rx="27.0966" ry="18"/>
<text text-anchor="middle" x="259" y="-179.3" font-family="Times,serif" font-size="14.00">User</text>
</g>
<!-- User&#45;&gt;Billing -->
<g id="edge4" class="edge"><title>User&#45;&gt;Billing</title>
<path fill="none" stroke="#60154b" d="M243.469,-159.566C234.267,-146.275 222.595,-129.415 213.127,-115.739"/>
<ellipse fill="none" stroke="#60154b" cx="245.749" cy="-162.86" rx="4.00002" ry="4.00002"/>
<polygon fill="#60154b" stroke="#60154b" points="212.964,-115.504 210.972,-104.721 210.118,-111.393 207.272,-107.282 207.272,-107.282 207.272,-107.282 210.118,-111.393 203.572,-109.844 212.964,-115.504 212.964,-115.504"/>
</g>
<!-- User&#45;&gt;Order -->
<g id="edge2" class="edge"><title>User&#45;&gt;Order</title>
<path fill="none" stroke="#89ade5" d="M259,-156.52C259,-126.6 259,-77.1639 259,-46.4265"/>
<ellipse fill="none" stroke="#89ade5" cx="259" cy="-160.864" rx="4" ry="4"/>
<polygon fill="#89ade5" stroke="#89ade5" points="259,-46.3968 263.5,-36.3967 259,-41.3968 259,-36.3968 259,-36.3968 259,-36.3968 259,-41.3968 254.5,-36.3968 259,-46.3968 259,-46.3968"/>
</g>
<!-- Product -->
<g id="node6" class="node"><title>Product</title>
<ellipse fill="none" stroke="black" cx="325" cy="-90" rx="38.1938" ry="18"/>
<text text-anchor="middle" x="325" y="-86.3" font-family="Times,serif" font-size="14.00">Product</text>
</g>
<!-- User&#45;&gt;Product -->
<g id="edge3" class="edge"><title>User&#45;&gt;Product</title>
<path fill="none" stroke="#d61e63" d="M276.233,-158.239C285.738,-145.134 297.524,-128.883 307.129,-115.641"/>
<polygon fill="#d61e63" stroke="#d61e63" points="276.067,-158.468 266.553,-163.921 273.132,-162.516 270.196,-166.563 270.196,-166.563 270.196,-166.563 273.132,-162.516 273.839,-169.205 276.067,-158.468 276.067,-158.468"/>
<polygon fill="#d61e63" stroke="#d61e63" points="307.208,-115.532 316.722,-110.079 310.143,-111.484 313.079,-107.437 313.079,-107.437 313.079,-107.437 310.143,-111.484 309.436,-104.795 307.208,-115.532 307.208,-115.532"/>
</g>
<!-- Product&#45;&gt;Order -->
<g id="edge5" class="edge"><title>Product&#45;&gt;Order</title>
<path fill="none" stroke="#aff021" d="M304.358,-67.1071C296.757,-59.0457 288.134,-49.8999 280.463,-41.7635"/>
<ellipse fill="none" stroke="#aff021" cx="307.28" cy="-70.2055" rx="4.00002" ry="4.00002"/>
<polygon fill="#aff021" stroke="#aff021" points="280.324,-41.6161 276.738,-31.2531 276.894,-37.9781 273.464,-34.3402 273.464,-34.3402 273.464,-34.3402 276.894,-37.9781 270.189,-37.4272 280.324,-41.6161 280.324,-41.6161"/>
</g>
</g>
</svg>
